<?xml version="1.0" encoding="UTF-8" standalone="no"?>
<!-- Created with Inkscape (http://www.inkscape.org/) -->

<svg
   xmlns:dc="http://purl.org/dc/elements/1.1/"
   xmlns:cc="http://creativecommons.org/ns#"
   xmlns:rdf="http://www.w3.org/1999/02/22-rdf-syntax-ns#"
   xmlns:svg="http://www.w3.org/2000/svg"
   xmlns="http://www.w3.org/2000/svg"
   xmlns:inkscape="http://www.inkscape.org/namespaces/inkscape"
   version="1.1"
   width="228.75"
   height="208.8"
   id="svg2"
   xml:space="preserve"><metadata
     id="metadata8"><rdf:RDF><cc:Work
         rdf:about=""><dc:format>image/svg+xml</dc:format><dc:type
           rdf:resource="http://purl.org/dc/dcmitype/StillImage" /></cc:Work></rdf:RDF></metadata><defs
     id="defs6" /><g
     transform="matrix(1.25,0,0,-1.25,0,208.8)"
     id="g10"><g
       transform="scale(0.1,0.1)"
       id="g12"><path
         d="m 1821.7,1653 c -8.12,10.89 -21.09,17.4 -34.64,17.4 -7.02,0 -13.93,-1.77 -19.98,-5.08 -254.16,-139.13 -548.81,-212.72 -852.076,-212.78 -303.266,0.06 -597.895,73.65 -852.0548,212.77 -6.0547,3.32 -12.9648,5.08 -19.9726,5.08 -13.5821,0 -26.5352,-6.5 -34.64457,-17.36 -12.03125,-15.99 -12.41406,-42.83 8.08207,-58.82 127.2929,-94.91 267.6089,-169 417.0629,-219.66 154.921,-52.56 316.914,-79.25 481.468,-79.32 l 0.117,0 c 164.568,0.07 326.568,26.76 481.468,79.32 149.47,50.68 289.78,124.75 417.24,219.77 20.34,15.89 19.95,42.73 7.93,58.68"
         inkscape:connector-curvature="0"
         id="path14"
         style="fill:#90cd23;fill-opacity:1;fill-rule:nonzero;stroke:none" /><path
         d="m 1529.59,1256.68 c -6.05,4.59 -13.33,6.99 -20.71,6.99 -4.09,0 -8.23,-0.76 -12.16,-2.26 -73.67,-28.17 -148.47,-49.57 -216.75,-65.47 -13.93,-3.25 -25.18,-13.59 -29.85,-26.01 -49.74,-136.27 -176.78,-266.024 -310.058,-401.942 -5.351,-5.078 -12.839,-11.777 -25.039,-11.777 -12.168,0 -19.589,6.484 -25.039,11.777 -133.265,135.918 -260.296,265.212 -310.05,401.502 -4.668,12.4 -15.93,22.75 -29.836,26 -68.321,15.92 -143.321,37.97 -216.883,66.13 -3.957,1.51 -8.094,2.26 -12.199,2.26 -7.371,0 -14.516,-2.32 -20.555,-6.93 -9.445,-7.2 -14.34,-18.88 -13.227,-30.11 11.289,-113.32 56.063,-224.09 136.871,-340.18 C 500.062,777.508 599.141,676.492 694.938,578.789 871.438,398.77 1038.17,228.738 1052.8,31.5703 1054.12,13.7891 1068.93,0 1086.8,0 l 207.37,0 c 9.33,0 18.26,3.83984 24.7,10.6094 6.43,6.7617 9.83,15.832 9.36,25.1797 -6.53,131.8199 -56.14,263.8319 -151.66,403.5309 -20.02,29.289 -41.47,57.789 -63.89,85.68 -9.1,11.359 -5.29,25.469 1.68,32.578 6.89,7.063 13.81,14.094 20.76,21.211 95.8,97.715 194.87,198.719 270.84,307.871 80.8,116.1 125.57,226.23 136.86,339.53 1.13,11.38 -4.05,23.47 -13.23,30.49"
         inkscape:connector-curvature="0"
         id="path16"
         style="fill:#68b1e5;fill-opacity:1;fill-rule:nonzero;stroke:none" /><path
         d="m 692.512,425.43 c -4.91,5.129 -12.114,10.371 -24.215,10.371 -15.477,0 -24.664,-10.699 -28.129,-16.012 C 552.945,287.07 507.895,161.801 501.672,35.9102 c -0.461,-9.2813 2.961,-18.5 9.39,-25.2891 C 517.5,3.89062 526.543,0 535.863,0 l 207.012,0 c 17.809,0 32.813,13.9414 34.129,31.6992 4.504,60.6719 23.394,121.4918 57.781,185.4028 11.914,22.109 2.656,42.878 -4.203,51.757 -34.121,44.371 -75.914,91.7 -138.07,156.571"
         inkscape:connector-curvature="0"
         id="path18"
         style="fill:#68b1e5;fill-opacity:1;fill-rule:nonzero;stroke:none" /><path
         d="m 915.219,1155.08 c 64.98,0 102.681,3.91 115.921,3.91 16.03,0 31.36,-13.14 31.36,-31.54 0,-5.38 -1.26,-9.21 -2.52,-12.6 -8.63,-23.05 -47.9,-105.94 -121.031,-177.057 -8.203,-7.969 -17.5,-9.465 -23.906,-9.465 l -0.078,0 c -6.387,0 -15.684,1.496 -23.875,9.465 -73.129,71.117 -112.422,154.007 -121.024,177.057 -1.265,3.39 -2.539,7.22 -2.539,12.6 0,18.4 15.344,31.54 31.383,31.54 13.238,0 50.926,-3.91 115.879,-3.91 l 0.43,0"
         inkscape:connector-curvature="0"
         id="path20"
         style="fill:#68b1e5;fill-opacity:1;fill-rule:nonzero;stroke:none" /></g></g></svg>